<?xml version="1.0" encoding="UTF-8"?>
<svg width="26px" height="26px" viewBox="0 0 26 26" version="1.1" xmlns="http://www.w3.org/2000/svg" xmlns:xlink="http://www.w3.org/1999/xlink">
    <title>􀁌</title>
    <g id="Page-1" stroke="none" stroke-width="1" fill="none" fill-rule="evenodd">
        <g id="Medium" transform="translate(-401.000000, -3584.000000)" fill="#FFFFFF" fill-rule="nonzero">
            <g id="Resources" transform="translate(0.000000, 3142.000000)">
                <g id="Group-11" transform="translate(150.000000, 421.000000)">
                    <g id="Group-10" transform="translate(45.000000, 19.000000)">
                        <g id="􀁌" transform="translate(206.185059, 2.735352)">
                            <path d="M12.4511719,24.9023438 C14.1520182,24.9023438 15.7531738,24.5768229 17.2546387,23.9257812 C18.7561035,23.2747396 20.0805664,22.3754883 21.2280273,21.2280273 C22.3754883,20.0805664 23.2747396,18.7561035 23.9257812,17.2546387 C24.5768229,15.7531738 24.9023438,14.1520182 24.9023438,12.4511719 C24.9023438,10.7503255 24.5768229,9.14916992 23.9257812,7.64770508 C23.2747396,6.14624023 22.3754883,4.82177734 21.2280273,3.67431641 C20.0805664,2.52685547 18.754069,1.62760417 17.2485352,0.9765625 C15.7430013,0.325520833 14.1398112,0 12.4389648,0 C10.7381185,0 9.13696289,0.325520833 7.63549805,0.9765625 C6.1340332,1.62760417 4.81160482,2.52685547 3.66821289,3.67431641 C2.52482096,4.82177734 1.62760417,6.14624023 0.9765625,7.64770508 C0.325520833,9.14916992 0,10.7503255 0,12.4511719 C0,14.1520182 0.325520833,15.7531738 0.9765625,17.2546387 C1.62760417,18.7561035 2.52685547,20.0805664 3.67431641,21.2280273 C4.82177734,22.3754883 6.14624023,23.2747396 7.64770508,23.9257812 C9.14916992,24.5768229 10.7503255,24.9023438 12.4511719,24.9023438 Z M12.4511719,22.8271484 C11.0107422,22.8271484 9.66389974,22.5585938 8.41064453,22.0214844 C7.15738932,21.484375 6.05672201,20.7417806 5.10864258,19.7937012 C4.16056315,18.8456217 3.42000326,17.7449544 2.88696289,16.4916992 C2.35392253,15.238444 2.08740234,13.8916016 2.08740234,12.4511719 C2.08740234,11.0107422 2.35392253,9.66389974 2.88696289,8.41064453 C3.42000326,7.15738932 4.15852865,6.0546875 5.10253906,5.10253906 C6.04654948,4.15039062 7.14518229,3.40779622 8.3984375,2.87475586 C9.65169271,2.34171549 10.9985352,2.07519531 12.4389648,2.07519531 C13.8793945,2.07519531 15.226237,2.34171549 16.4794922,2.87475586 C17.7327474,3.40779622 18.8354492,4.15039062 19.7875977,5.10253906 C20.7397461,6.0546875 21.484375,7.15738932 22.0214844,8.41064453 C22.5585938,9.66389974 22.8271484,11.0107422 22.8271484,12.4511719 C22.8271484,13.8916016 22.5606283,15.238444 22.0275879,16.4916992 C21.4945475,17.7449544 20.7539876,18.8456217 19.8059082,19.7937012 C18.8578288,20.7417806 17.755127,21.484375 16.4978027,22.0214844 C15.2404785,22.5585938 13.8916016,22.8271484 12.4511719,22.8271484 Z M12.4145508,17.9321289 C12.7400716,17.9321289 12.9943848,17.8283691 13.1774902,17.6208496 C13.3605957,17.4133301 13.4521484,17.1346029 13.4521484,16.784668 L13.4521484,13.4887695 L16.9677734,13.4887695 C17.3095703,13.4887695 17.5882975,13.4012858 17.8039551,13.2263184 C18.0196126,13.0513509 18.1274414,12.8011068 18.1274414,12.4755859 C18.1274414,12.1500651 18.0236816,11.895752 17.8161621,11.7126465 C17.6086426,11.529541 17.3258464,11.4379883 16.9677734,11.4379883 L13.4521484,11.4379883 L13.4521484,7.92236328 C13.4521484,7.56429036 13.3605957,7.28149414 13.1774902,7.07397461 C12.9943848,6.86645508 12.7400716,6.76269531 12.4145508,6.76269531 C12.0890299,6.76269531 11.8408203,6.86848958 11.6699219,7.08007812 C11.4990234,7.29166667 11.4135742,7.57242839 11.4135742,7.92236328 L11.4135742,11.4379883 L7.91015625,11.4379883 C7.55208333,11.4379883 7.2672526,11.529541 7.05566406,11.7126465 C6.84407552,11.895752 6.73828125,12.1500651 6.73828125,12.4755859 C6.73828125,12.8011068 6.84814453,13.0513509 7.06787109,13.2263184 C7.28759766,13.4012858 7.56835938,13.4887695 7.91015625,13.4887695 L11.4135742,13.4887695 L11.4135742,16.784668 C11.4135742,17.1264648 11.4990234,17.4031576 11.6699219,17.6147461 C11.8408203,17.8263346 12.0890299,17.9321289 12.4145508,17.9321289 Z" id="Shape"></path>
                        </g>
                    </g>
                </g>
            </g>
        </g>
    </g>
</svg>